<svg xmlns="http://www.w3.org/2000/svg" viewBox="0 0 512 512" role="img" aria-label="Tim Compass icon">
  <rect width="512" height="512" rx="96" fill="#f7f0e8"/>
  <circle cx="256" cy="256" r="178" fill="#fffaf2" stroke="#211914" stroke-opacity=".12" stroke-width="8"/>
  <circle cx="256" cy="256" r="112" fill="none" stroke="#211914" stroke-opacity=".10" stroke-width="5"/>
  <path d="M256 72l34 165-34-22-34 22 34-165z" fill="#c8102e"/>
  <path d="M256 440l-34-165 34 22 34-22-34 165z" fill="#246a8f"/>
  <circle cx="256" cy="256" r="42" fill="#f7f0e8" stroke="#211914" stroke-opacity=".12" stroke-width="12"/>
  <circle cx="256" cy="256" r="12" fill="#fff"/>
  <text x="256" y="132" text-anchor="middle" font-family="Arial, sans-serif" font-size="42" font-weight="900" fill="#c8102e">N</text>
  <path d="M256 148c11 31 34 43 68 35-20 27-17 53 9 78-34-4-54 11-61 45-15-30-39-38-71-23 14-31 6-55-24-72 33-8 49-29 48-63 24 23 48 23 72 0z" fill="#dd1f2d" opacity=".18"/>
</svg>
